<?xml version="1.0" encoding="UTF-8"?><svg id="Layer_1" xmlns="http://www.w3.org/2000/svg" viewBox="0 0 504.79 107.33"><defs><style>.cls-1{fill:#dd1082;}.cls-2{fill:#1a1a1a;}.cls-3{fill:#666;}</style></defs><g><path class="cls-2" d="m48.08,49.39l-9.41-19.52-1.79-3.71-8.39-17.39-1.79-3.71h-8.03l1.8,3.71,1.4,2.9L2.4,53.1h2.56l4.62-9.87h27.51l2.97,6.16,1.79,3.71h8.03l-1.79-3.71Zm-36.62-10.17l11.69-24.93,5.71,11.87,1.79,3.71,4.5,9.35H11.46Z"/><polygon class="cls-2" points="122.07 5.06 122.07 45.84 89.94 5.06 84.76 5.06 84.76 53.1 86.91 53.1 86.91 12.93 118.82 53.1 124.23 53.1 124.23 5.06 122.07 5.06"/><rect class="cls-2" x="131.75" y="5.06" width="7.84" height="48.04"/><path class="cls-2" d="m194.45,18.76s-1.99-14.6-22.43-14.6-27.4,14.09-26.78,26.22c.62,12.13,7.92,22.29,24.14,23.64,0,0,8.7,1.46,18.7-4.32l7.36,4.49v-27.79h-30.83l2.81,3.48h20.38v16.84s-7.86,5.95-18.14,4.77c-10.28-1.18-16.68-10.84-16.45-22.32.22-11.48,6.12-22.15,18.75-22.88,0,0,12.24-1.07,14.54,12.47h7.94Z"/><polygon class="cls-2" points="198.61 53.1 213.38 11.79 211.19 5.06 218.81 5.06 230.64 45.72 243.01 11.49 240.97 5.06 248.59 5.06 262.83 53.1 255.29 53.1 243.99 14.88 230.27 53.1 225.52 53.1 214.29 15.18 200.64 53.1 198.61 53.1"/><g><rect class="cls-1" x="329.14" y="5.06" width="7.29" height="48.23"/><path class="cls-1" d="m364.88,24h-10.23s-12.43.38-13.02,14.64c.6,14.26,13.02,14.64,13.02,14.64h17.58v-29.29h-7.35Zm0,27.38h-7.89c-.51,0-1.02-.06-1.51-.22-6.91-2.22-6.51-12.52-6.51-12.52,0,0-.4-10.3,6.51-12.52.49-.16,1-.22,1.51-.22h7.89v25.48Z"/><path class="cls-1" d="m396.41,24h-10.23V5.16h-7.35v48.13h17.58s12.43-.38,13.02-14.64c-.6-14.26-13.02-14.64-13.02-14.64Zm-.83,27.16c-.49.16-1,.22-1.51.22h-7.89v-25.48h7.89c.51,0,1.02.06,1.51.22,6.91,2.22,6.51,12.52,6.51,12.52,0,0,.4,10.3-6.51,12.52Z"/><path class="cls-1" d="m436.53,39.6c-.75-.56-6.41-4.24-6.41-4.24l-6.22-4.25s-2.11-1.4-1.4-4.35c.74-3.05,7.36-4.11,8.43,2h6.85s-.89-5.81-11.26-5.84c0,0-9.65-.15-10.24,6.3,0,0-.57,3.62,2.74,5.97,3.31,2.35,7.99,5.36,7.99,5.36l2.57,1.72s3.82,2.36,3.04,6.18c-.78,3.82-3.51,4.04-5.96,4.07-2.45.03-6.52-1.8-7.08-7.85h-7.05s.28,9.22,12.6,9.41c0,0,11.18.9,14-4.7,2.82-5.6-1.86-9.2-2.61-9.76Z"/><rect class="cls-1" x="443.25" y="44.5" width="8.79" height="8.79"/></g><polygon class="cls-2" points="77.11 5.06 73.19 9.83 36.49 9.83 34.19 5.06 77.11 5.06"/><polygon class="cls-2" points="77.11 26.17 73.15 30.94 46.73 30.94 44.37 26.17 77.11 26.17"/><polygon class="cls-2" points="77.99 48.33 75.31 53.1 57.39 53.1 55.07 48.33 77.99 48.33"/><path class="cls-2" d="m271.06,39.79c.61,5.11,5.66,10.05,11.91,9.92,6.89-.15,11.01-6.2,11.01-12.12,0-3.65-.23-7.57-4.12-10.71-3.33-2.69-9.61-3.59-13.51-2.63l13.27-15.04h-29.43l-1.62-4.15h40.58l-13.62,15.89c12.5,2.27,16.61,8.85,16.39,15.66-.31,9.65-7.87,17.04-19.39,17.04-6.06,0-13.01-2.56-17.45-9.41l5.98-4.45Z"/></g><g><path class="cls-3" d="m7.55,74.67v22.54h-3.28v-22.54h3.28Zm-2.1,22.54v-22.54h6.72c6.62,0,11.05,4.44,11.05,11.37s-4.43,11.18-11.05,11.18h-6.72Zm.99-21.22v19.9h3.76c5.86,0,9.74-3.93,9.74-10.05s-3.88-9.85-9.74-9.85h-3.76Z"/><path class="cls-3" d="m25.91,97.21v-15.72l3.28-1.19v.77c.7-.26,1.24-.42,2.29-.42,2.48,0,3.66.93,4.65,2l-2.04,1.96c-.51-1.13-1.21-2.64-2.83-2.64-2.1,0-2.07,2.51-2.07,5.41v9.82h-3.28Z"/><path class="cls-3" d="m39.69,73.87c1.11,0,1.88.74,1.88,1.9s-.76,1.87-1.88,1.87-1.88-.74-1.88-1.87.76-1.9,1.88-1.9Zm1.66,6.44v16.91h-3.31v-15.72l3.31-1.19Z"/><path class="cls-3" d="m47.08,81.11l6.21,16.1h-3.53l-6.21-16.1h3.53Zm6.21,16.1h-1.4l6.21-16.1h1.4l-6.21,16.1Z"/><path class="cls-3" d="m63.34,73.87c1.11,0,1.88.74,1.88,1.9s-.76,1.87-1.88,1.87-1.88-.74-1.88-1.87.76-1.9,1.88-1.9Zm1.66,6.44v16.91h-3.31v-15.72l3.31-1.19Z"/><path class="cls-3" d="m71.87,80.31v16.91h-3.31v-15.72l3.31-1.19Zm-.92,3.67c.99-2.03,2.96-3.32,5.63-3.32,3.57,0,6.62,2.29,6.62,5.96v10.6h-3.28v-10.85c0-2.9-1.88-4.38-3.85-4.38-2.52,0-4.2,2.38-4.2,4.54-.29-.64-1.94-1.96-.92-2.54Z"/><path class="cls-3" d="m94.53,80.66c5.28,0,8.66,2.96,8.66,7.37s-3.37,7.38-8.66,7.38-8.63-2.93-8.63-7.38,3.34-7.37,8.63-7.37Zm-4.43,13.62c-1.78.19-2.13,1.19-1.59,1.74.96.97,4.43.58,7.19.52,3.18-.06,7.64.35,7.51,4.03-.16,3.99-5.54,4.64-8.28,4.61-3.34-.06-6.97-1.19-8.75-2.9l1.97-1.96c1.62,2.09,4.49,3.51,7.58,3.48,2.26,0,4.11-.64,4.3-2.13.22-1.9-2.8-1.8-5.03-1.87-3.06.06-7.48-.06-8.34-2.54-.29-.87-.48-2.96,2.55-3.93l.89.97Zm4.43-.16c2.93,0,5.35-2.03,5.35-6.09s-2.42-6.09-5.35-6.09-5.32,2.03-5.32,6.09,2.42,6.09,5.32,6.09Zm8.66-15.72c-.38,1.58-2.32,3.57-4.55,3.99l-.67-.58c2.2-1.38,2.71-3.22,3.02-4.83l2.2,1.42Z"/><path class="cls-3" d="m132.91,91.97c-.22,4.41-4.87,5.64-8.47,5.67-4.01,0-7.93-1.45-9.87-3.09l2.01-2c1.46,2.13,4.9,3.8,8.05,3.8,1.37,0,5.13-.32,5.38-3.38.38-2.93-3.15-4.12-5.83-5.28-5.79-2.16-8.98-4.64-8.85-8.08.16-3.64,3.92-5.15,7.58-5.15,3.6-.03,7.58,1.42,9.33,3.06l-2.01,2.03c-1.3-2.32-4.78-3.8-7.23-3.8-1.94,0-4.78.93-4.78,3.19-.06,2.71,4.27,4.51,5.54,5.06,4.52,1.8,9.36,3.45,9.14,7.99Z"/><path class="cls-3" d="m142.93,86.72c-2.58-.06-4.71,1.61-4.87,4.48-.16,2.35,1.08,4.8,4.17,4.86,3.21.1,5.06-2.45,5.06-5.22l2.52.06c-.7,3.38-3.12,6.6-8.28,6.63-5.13.06-6.81-2.93-6.81-5.86,0-4.32,3.6-6.28,7.58-6.28,3.44,0,6.53,1.48,7.51,2.99l-2.52,2.71c-.13-3.41-2.58-4.32-4.36-4.38Zm-7.96-3.03c1.94-2.09,4.74-2.96,7.58-2.93,5.03.03,7.99,2.9,7.99,6.92v9.53h-3.28l.03-10.47c0-2.35-1.43-4.9-4.74-4.86-2.39.03-4.36,1.38-5.51,3.9l-2.07-2.09Z"/><path class="cls-3" d="m157.44,97.21h-3.31v-21.9l3.31-1.19v23.09Z"/><path class="cls-3" d="m177.02,89.16h-3.18c.29-4.12-2.2-7.28-5.19-7.28-2.55,0-5.28,2.32-5.13,6.8.16,4.22,2.8,7.02,5.79,7.44,2.01.29,4.62-.42,5.79-1.55l.41.29c-1.24,1.58-3.95,2.77-6.69,2.77-5.22,0-8.69-3.38-8.69-8.47s3.47-8.5,8.56-8.5c5.44,0,8.47,3.93,8.31,8.5Zm-14.71-1.29h13.59v1.29h-13.59v-1.29Z"/><path class="cls-3" d="m194.14,93.03c-.06,3.28-3.47,4.54-7.04,4.57-3.95.06-6.97-1.39-8.91-2.96l1.97-2.06c1.4,2.29,4.01,3.83,7.07,3.8,1.4,0,3.72-.35,3.88-2.16.22-2.09-2.83-2.93-3.72-3.19-4.01-1.06-8.6-2.58-8.44-6.25.13-2.64,2.61-4.09,6.27-4.12,3.72-.03,6.97,1.38,8.72,2.99l-2.01,2.06c-1.15-2.35-4.04-3.86-6.53-3.83-1.62.03-3.21.68-3.34,2.13-.19,2.03,2.71,2.8,4.14,3.32,3.12,1.03,8.02,1.77,7.93,5.7Z"/><path class="cls-3" d="m200.25,93.99c-.38,1.96-1.75,4.22-3.12,5.31l-1.18-.16c.76-1.77,1.11-3.61,1.02-5.15h3.28Z"/><path class="cls-3" d="m215.39,74.67l7.29,12.98-2.29,2.64-8.82-15.62h3.82Zm-1.69,0v22.54h-1.27v-22.54h1.27Zm17,0l-8.82,15.62h-1.5l8.82-15.62h1.5Zm1.88,0v22.54h-3.28v-22.54h3.28Z"/><path class="cls-3" d="m243.5,86.72c-2.58-.06-4.71,1.61-4.87,4.48-.16,2.35,1.08,4.8,4.17,4.86,3.21.1,5.06-2.45,5.06-5.22l2.52.06c-.7,3.38-3.12,6.6-8.28,6.63-5.13.06-6.81-2.93-6.81-5.86,0-4.32,3.6-6.28,7.58-6.28,3.44,0,6.53,1.48,7.51,2.99l-2.52,2.71c-.13-3.41-2.58-4.32-4.36-4.38Zm-7.96-3.03c1.94-2.09,4.74-2.96,7.58-2.93,5.03.03,7.99,2.9,7.99,6.92v9.53h-3.28l.03-10.47c0-2.35-1.43-4.9-4.74-4.86-2.39.03-4.36,1.38-5.51,3.9l-2.07-2.09Z"/><path class="cls-3" d="m256.64,81.11l12.92,16.1h-4.27l-12.93-16.1h4.27Zm11.62,0l-12.93,16.1h-1.66l12.93-16.1h1.66Z"/><path class="cls-3" d="m273.44,73.87c1.11,0,1.88.74,1.88,1.9s-.76,1.87-1.88,1.87-1.88-.74-1.88-1.87.76-1.9,1.88-1.9Zm1.66,6.44v16.91h-3.31v-15.72l3.31-1.19Z"/><path class="cls-3" d="m281.97,80.31v16.91h-3.31v-15.72l3.31-1.19Zm-.92,3.67c.99-2.03,2.96-3.32,5.63-3.32,3.57,0,6.62,2.29,6.62,5.96v10.6h-3.28v-10.85c0-2.9-1.88-4.38-3.85-4.38-2.52,0-4.2,2.38-4.2,4.54-.29-.64-1.94-1.96-.92-2.54Zm10.95,0c.99-2.03,2.96-3.32,5.64-3.32,3.57,0,6.62,2.29,6.62,5.96v10.6h-3.28v-10.85c0-2.9-1.88-4.38-3.85-4.38-2.52,0-4.2,2.38-4.2,4.54-.29-.64-1.94-1.96-.92-2.54Z"/><path class="cls-3" d="m309.5,73.87c1.11,0,1.88.74,1.88,1.9s-.76,1.87-1.88,1.87-1.88-.74-1.88-1.87.76-1.9,1.88-1.9Zm1.66,6.44v16.91h-3.31v-15.72l3.31-1.19Z"/><path class="cls-3" d="m317.96,97.21h-4.14l12.1-16.1h4.14l-12.1,16.1Zm10-16.1v1.32h-13.82v-1.32h13.82Zm1.81,14.78v1.32h-13.98v-1.32h13.98Z"/><path class="cls-3" d="m334.38,73.87c1.11,0,1.88.74,1.88,1.9s-.76,1.87-1.88,1.87-1.88-.74-1.88-1.87.76-1.9,1.88-1.9Zm1.66,6.44v16.91h-3.31v-15.72l3.31-1.19Z"/><path class="cls-3" d="m342.91,80.31v16.91h-3.31v-15.72l3.31-1.19Zm-.92,3.67c.99-2.03,2.96-3.32,5.63-3.32,3.57,0,6.62,2.29,6.62,5.96v10.6h-3.28v-10.85c0-2.9-1.88-4.38-3.85-4.38-2.52,0-4.2,2.38-4.2,4.54-.29-.64-1.94-1.96-.92-2.54Z"/><path class="cls-3" d="m365.57,80.66c5.28,0,8.66,2.96,8.66,7.37s-3.37,7.38-8.66,7.38-8.63-2.93-8.63-7.38,3.34-7.37,8.63-7.37Zm-4.43,13.62c-1.78.19-2.13,1.19-1.59,1.74.96.97,4.43.58,7.19.52,3.18-.06,7.64.35,7.51,4.03-.16,3.99-5.54,4.64-8.28,4.61-3.34-.06-6.97-1.19-8.75-2.9l1.97-1.96c1.62,2.09,4.49,3.51,7.58,3.48,2.26,0,4.11-.64,4.3-2.13.22-1.9-2.8-1.8-5.03-1.87-3.06.06-7.48-.06-8.34-2.54-.29-.87-.48-2.96,2.55-3.93l.89.97Zm4.43-.16c2.93,0,5.35-2.03,5.35-6.09s-2.42-6.09-5.35-6.09-5.32,2.03-5.32,6.09,2.42,6.09,5.32,6.09Zm8.66-15.72c-.38,1.58-2.32,3.57-4.55,3.99l-.67-.58c2.2-1.38,2.71-3.22,3.02-4.83l2.2,1.42Z"/><path class="cls-3" d="m386.57,97.21v-15.72l3.28-1.19v.77c.7-.26,1.24-.42,2.29-.42,2.48,0,3.66.93,4.65,2l-2.04,1.96c-.51-1.13-1.21-2.64-2.83-2.64-2.1,0-2.07,2.51-2.07,5.41v9.82h-3.28Z"/><path class="cls-3" d="m413.73,89.16h-3.18c.29-4.12-2.2-7.28-5.19-7.28-2.55,0-5.28,2.32-5.13,6.8.16,4.22,2.8,7.02,5.79,7.44,2.01.29,4.62-.42,5.79-1.55l.41.29c-1.24,1.58-3.95,2.77-6.69,2.77-5.22,0-8.69-3.38-8.69-8.47s3.47-8.5,8.56-8.5c5.44,0,8.47,3.93,8.31,8.5Zm-14.71-1.29h13.59v1.29h-13.59v-1.29Z"/><path class="cls-3" d="m417.64,81.11l6.21,16.1h-3.53l-6.21-16.1h3.53Zm6.21,16.1h-1.4l6.21-16.1h1.4l-6.21,16.1Z"/><path class="cls-3" d="m447.27,89.16h-3.18c.29-4.12-2.2-7.28-5.19-7.28-2.55,0-5.28,2.32-5.13,6.8.16,4.22,2.8,7.02,5.79,7.44,2.01.29,4.62-.42,5.79-1.55l.41.29c-1.24,1.58-3.95,2.77-6.69,2.77-5.22,0-8.69-3.38-8.69-8.47s3.47-8.5,8.56-8.5c5.44,0,8.47,3.93,8.31,8.5Zm-14.71-1.29h13.59v1.29h-13.59v-1.29Z"/><path class="cls-3" d="m453.28,80.31v16.91h-3.31v-15.72l3.31-1.19Zm-.92,3.67c.99-2.03,2.96-3.32,5.63-3.32,3.57,0,6.62,2.29,6.62,5.96v10.6h-3.28v-10.85c0-2.9-1.88-4.38-3.85-4.38-2.52,0-4.2,2.38-4.2,4.54-.29-.64-1.94-1.96-.92-2.54Z"/><path class="cls-3" d="m479.54,81.11h3.31v16.1h-3.31v-1.58c-1.08,1.22-2.67,1.93-4.68,1.93-3.57,0-6.62-2.32-6.62-5.99v-10.47h3.28v10.76c0,2.9,1.88,4.38,3.85,4.38,2.52,0,4.17-2.41,4.17-4.54v-10.6Z"/><path class="cls-3" d="m502.39,89.16h-3.18c.29-4.12-2.2-7.28-5.19-7.28-2.55,0-5.28,2.32-5.13,6.8.16,4.22,2.8,7.02,5.79,7.44,2.01.29,4.62-.42,5.79-1.55l.41.29c-1.24,1.58-3.95,2.77-6.69,2.77-5.22,0-8.69-3.38-8.69-8.47s3.47-8.5,8.56-8.5c5.44,0,8.47,3.93,8.31,8.5Zm-14.71-1.29h13.59v1.29h-13.59v-1.29Z"/></g></svg>